<mxfile host="app.diagrams.net" modified="2024-05-05T14:36:06.520Z" agent="Mozilla/5.0 (Macintosh; Intel Mac OS X 10_15_7) AppleWebKit/537.36 (KHTML, like Gecko) Chrome/124.0.0.0 Safari/537.36" etag="fKX-d8vWqav_isj0qIdv" version="24.0.7" type="github">
  <diagram name="Page-1" id="5TGG3peU59izgCIG3uVN">
    <mxGraphModel dx="2069" dy="700" grid="1" gridSize="10" guides="1" tooltips="1" connect="1" arrows="1" fold="1" page="1" pageScale="1" pageWidth="827" pageHeight="1169" math="0" shadow="0">
      <root>
        <mxCell id="0" />
        <mxCell id="1" parent="0" />
        <mxCell id="OMyf0B87vqGbtnCyrnvH-50" value="Private subnet" style="points=[[0,0],[0.25,0],[0.5,0],[0.75,0],[1,0],[1,0.25],[1,0.5],[1,0.75],[1,1],[0.75,1],[0.5,1],[0.25,1],[0,1],[0,0.75],[0,0.5],[0,0.25]];outlineConnect=0;gradientColor=none;html=1;whiteSpace=wrap;fontSize=12;fontStyle=0;container=1;pointerEvents=0;collapsible=0;recursiveResize=0;shape=mxgraph.aws4.group;grIcon=mxgraph.aws4.group_security_group;grStroke=0;strokeColor=#00A4A6;fillColor=#E6F6F7;verticalAlign=top;align=left;spacingLeft=30;fontColor=#147EBA;dashed=0;" vertex="1" parent="1">
          <mxGeometry x="408" y="533" width="130" height="587" as="geometry" />
        </mxCell>
        <mxCell id="OMyf0B87vqGbtnCyrnvH-49" value="Public subnet" style="points=[[0,0],[0.25,0],[0.5,0],[0.75,0],[1,0],[1,0.25],[1,0.5],[1,0.75],[1,1],[0.75,1],[0.5,1],[0.25,1],[0,1],[0,0.75],[0,0.5],[0,0.25]];outlineConnect=0;gradientColor=none;html=1;whiteSpace=wrap;fontSize=12;fontStyle=0;container=1;pointerEvents=0;collapsible=0;recursiveResize=0;shape=mxgraph.aws4.group;grIcon=mxgraph.aws4.group_security_group;grStroke=0;strokeColor=#7AA116;fillColor=#F2F6E8;verticalAlign=top;align=left;spacingLeft=30;fontColor=#248814;dashed=0;" vertex="1" parent="1">
          <mxGeometry x="406" y="304" width="130" height="189" as="geometry" />
        </mxCell>
        <mxCell id="OMyf0B87vqGbtnCyrnvH-11" style="edgeStyle=orthogonalEdgeStyle;rounded=0;orthogonalLoop=1;jettySize=auto;html=1;" edge="1" parent="1" target="OMyf0B87vqGbtnCyrnvH-9">
          <mxGeometry relative="1" as="geometry">
            <mxPoint x="-180" y="445" as="sourcePoint" />
          </mxGeometry>
        </mxCell>
        <mxCell id="OMyf0B87vqGbtnCyrnvH-6" value="users" style="sketch=0;outlineConnect=0;gradientColor=none;fontColor=#545B64;strokeColor=none;fillColor=#879196;dashed=0;verticalLabelPosition=bottom;verticalAlign=top;align=center;html=1;fontSize=12;fontStyle=0;aspect=fixed;shape=mxgraph.aws4.illustration_users;pointerEvents=1" vertex="1" parent="1">
          <mxGeometry x="-240" y="420" width="49" height="50" as="geometry" />
        </mxCell>
        <mxCell id="OMyf0B87vqGbtnCyrnvH-8" value="AWS Cloud" style="points=[[0,0],[0.25,0],[0.5,0],[0.75,0],[1,0],[1,0.25],[1,0.5],[1,0.75],[1,1],[0.75,1],[0.5,1],[0.25,1],[0,1],[0,0.75],[0,0.5],[0,0.25]];outlineConnect=0;gradientColor=none;html=1;whiteSpace=wrap;fontSize=12;fontStyle=0;container=1;pointerEvents=0;collapsible=0;recursiveResize=0;shape=mxgraph.aws4.group;grIcon=mxgraph.aws4.group_aws_cloud_alt;strokeColor=#232F3E;fillColor=none;verticalAlign=top;align=left;spacingLeft=30;fontColor=#232F3E;dashed=0;" vertex="1" parent="1">
          <mxGeometry x="-30" y="150" width="780" height="1060" as="geometry" />
        </mxCell>
        <mxCell id="OMyf0B87vqGbtnCyrnvH-31" value="S3" style="sketch=0;points=[[0,0,0],[0.25,0,0],[0.5,0,0],[0.75,0,0],[1,0,0],[0,1,0],[0.25,1,0],[0.5,1,0],[0.75,1,0],[1,1,0],[0,0.25,0],[0,0.5,0],[0,0.75,0],[1,0.25,0],[1,0.5,0],[1,0.75,0]];outlineConnect=0;fontColor=#232F3E;fillColor=#7AA116;strokeColor=#ffffff;dashed=0;verticalLabelPosition=bottom;verticalAlign=top;align=center;html=1;fontSize=12;fontStyle=0;aspect=fixed;shape=mxgraph.aws4.resourceIcon;resIcon=mxgraph.aws4.s3;" vertex="1" parent="OMyf0B87vqGbtnCyrnvH-8">
          <mxGeometry x="680" y="260" width="60" height="60" as="geometry" />
        </mxCell>
        <mxCell id="OMyf0B87vqGbtnCyrnvH-30" value="Internet Gateway" style="sketch=0;outlineConnect=0;fontColor=#232F3E;gradientColor=none;fillColor=#8C4FFF;strokeColor=none;dashed=0;verticalLabelPosition=bottom;verticalAlign=top;align=center;html=1;fontSize=12;fontStyle=0;aspect=fixed;pointerEvents=1;shape=mxgraph.aws4.internet_gateway;" vertex="1" parent="OMyf0B87vqGbtnCyrnvH-8">
          <mxGeometry x="320" y="30" width="60" height="60" as="geometry" />
        </mxCell>
        <mxCell id="OMyf0B87vqGbtnCyrnvH-77" value="USER&amp;nbsp;&lt;br&gt;RDS" style="sketch=0;points=[[0,0,0],[0.25,0,0],[0.5,0,0],[0.75,0,0],[1,0,0],[0,1,0],[0.25,1,0],[0.5,1,0],[0.75,1,0],[1,1,0],[0,0.25,0],[0,0.5,0],[0,0.75,0],[1,0.25,0],[1,0.5,0],[1,0.75,0]];outlineConnect=0;fontColor=#232F3E;fillColor=#C925D1;strokeColor=#ffffff;dashed=0;verticalLabelPosition=bottom;verticalAlign=top;align=center;html=1;fontSize=12;fontStyle=0;aspect=fixed;shape=mxgraph.aws4.resourceIcon;resIcon=mxgraph.aws4.rds;" vertex="1" parent="OMyf0B87vqGbtnCyrnvH-8">
          <mxGeometry x="680" y="443" width="60" height="60" as="geometry" />
        </mxCell>
        <mxCell id="OMyf0B87vqGbtnCyrnvH-78" value="Booking&amp;nbsp;&lt;br&gt;RDS" style="sketch=0;points=[[0,0,0],[0.25,0,0],[0.5,0,0],[0.75,0,0],[1,0,0],[0,1,0],[0.25,1,0],[0.5,1,0],[0.75,1,0],[1,1,0],[0,0.25,0],[0,0.5,0],[0,0.75,0],[1,0.25,0],[1,0.5,0],[1,0.75,0]];outlineConnect=0;fontColor=#232F3E;fillColor=#C925D1;strokeColor=#ffffff;dashed=0;verticalLabelPosition=bottom;verticalAlign=top;align=center;html=1;fontSize=12;fontStyle=0;aspect=fixed;shape=mxgraph.aws4.resourceIcon;resIcon=mxgraph.aws4.rds;" vertex="1" parent="OMyf0B87vqGbtnCyrnvH-8">
          <mxGeometry x="680" y="720" width="60" height="60" as="geometry" />
        </mxCell>
        <mxCell id="OMyf0B87vqGbtnCyrnvH-80" value="Theatre&lt;br&gt;RDS" style="sketch=0;points=[[0,0,0],[0.25,0,0],[0.5,0,0],[0.75,0,0],[1,0,0],[0,1,0],[0.25,1,0],[0.5,1,0],[0.75,1,0],[1,1,0],[0,0.25,0],[0,0.5,0],[0,0.75,0],[1,0.25,0],[1,0.5,0],[1,0.75,0]];outlineConnect=0;fontColor=#232F3E;fillColor=#C925D1;strokeColor=#ffffff;dashed=0;verticalLabelPosition=bottom;verticalAlign=top;align=center;html=1;fontSize=12;fontStyle=0;aspect=fixed;shape=mxgraph.aws4.resourceIcon;resIcon=mxgraph.aws4.rds;" vertex="1" parent="OMyf0B87vqGbtnCyrnvH-8">
          <mxGeometry x="680" y="850" width="60" height="60" as="geometry" />
        </mxCell>
        <mxCell id="OMyf0B87vqGbtnCyrnvH-81" value="Redis Cache&amp;nbsp;" style="sketch=0;outlineConnect=0;fontColor=#232F3E;gradientColor=none;fillColor=#C925D1;strokeColor=none;dashed=0;verticalLabelPosition=bottom;verticalAlign=top;align=center;html=1;fontSize=12;fontStyle=0;aspect=fixed;pointerEvents=1;shape=mxgraph.aws4.elasticache_for_redis;" vertex="1" parent="OMyf0B87vqGbtnCyrnvH-8">
          <mxGeometry x="680" y="966" width="60" height="53.08" as="geometry" />
        </mxCell>
        <mxCell id="OMyf0B87vqGbtnCyrnvH-82" value="Movie&amp;nbsp;&lt;br&gt;Cassendra DB" style="sketch=0;points=[[0,0,0],[0.25,0,0],[0.5,0,0],[0.75,0,0],[1,0,0],[0,1,0],[0.25,1,0],[0.5,1,0],[0.75,1,0],[1,1,0],[0,0.25,0],[0,0.5,0],[0,0.75,0],[1,0.25,0],[1,0.5,0],[1,0.75,0]];outlineConnect=0;fontColor=#232F3E;fillColor=#C925D1;strokeColor=#ffffff;dashed=0;verticalLabelPosition=bottom;verticalAlign=top;align=center;html=1;fontSize=12;fontStyle=0;aspect=fixed;shape=mxgraph.aws4.resourceIcon;resIcon=mxgraph.aws4.managed_apache_cassandra_service;" vertex="1" parent="OMyf0B87vqGbtnCyrnvH-8">
          <mxGeometry x="680" y="590" width="60" height="60" as="geometry" />
        </mxCell>
        <mxCell id="OMyf0B87vqGbtnCyrnvH-9" value="" style="fontColor=#0066CC;verticalAlign=top;verticalLabelPosition=bottom;labelPosition=center;align=center;html=1;outlineConnect=0;fillColor=#CCCCCC;strokeColor=#6881B3;gradientColor=none;gradientDirection=north;strokeWidth=2;shape=mxgraph.networks.monitor;" vertex="1" parent="1">
          <mxGeometry x="-150" y="360" width="79" height="60" as="geometry" />
        </mxCell>
        <mxCell id="OMyf0B87vqGbtnCyrnvH-10" value="" style="fontColor=#0066CC;verticalAlign=top;verticalLabelPosition=bottom;labelPosition=center;align=center;html=1;outlineConnect=0;fillColor=#CCCCCC;strokeColor=#6881B3;gradientColor=none;gradientDirection=north;strokeWidth=2;shape=mxgraph.networks.mobile;" vertex="1" parent="1">
          <mxGeometry x="-125" y="470" width="29" height="60" as="geometry" />
        </mxCell>
        <mxCell id="OMyf0B87vqGbtnCyrnvH-13" style="edgeStyle=none;rounded=0;orthogonalLoop=1;jettySize=auto;html=1;entryX=0.5;entryY=0;entryDx=0;entryDy=0;entryPerimeter=0;" edge="1" parent="1" source="OMyf0B87vqGbtnCyrnvH-9" target="OMyf0B87vqGbtnCyrnvH-10">
          <mxGeometry relative="1" as="geometry" />
        </mxCell>
        <mxCell id="OMyf0B87vqGbtnCyrnvH-29" value="" style="endArrow=classic;html=1;rounded=0;startArrow=classic;startFill=0;edgeStyle=orthogonalEdgeStyle;entryX=0;entryY=0.5;entryDx=0;entryDy=0;entryPerimeter=0;" edge="1" parent="1" target="OMyf0B87vqGbtnCyrnvH-15">
          <mxGeometry width="50" height="50" relative="1" as="geometry">
            <mxPoint x="-110" y="440" as="sourcePoint" />
            <mxPoint x="160" y="50" as="targetPoint" />
            <Array as="points">
              <mxPoint x="-110" y="430" />
              <mxPoint x="-50" y="430" />
              <mxPoint x="-50" y="50" />
            </Array>
          </mxGeometry>
        </mxCell>
        <mxCell id="OMyf0B87vqGbtnCyrnvH-14" value="AWS CloudFront" style="sketch=0;points=[[0,0,0],[0.25,0,0],[0.5,0,0],[0.75,0,0],[1,0,0],[0,1,0],[0.25,1,0],[0.5,1,0],[0.75,1,0],[1,1,0],[0,0.25,0],[0,0.5,0],[0,0.75,0],[1,0.25,0],[1,0.5,0],[1,0.75,0]];outlineConnect=0;fontColor=#232F3E;fillColor=#8C4FFF;strokeColor=#ffffff;dashed=0;verticalLabelPosition=bottom;verticalAlign=top;align=center;html=1;fontSize=12;fontStyle=0;aspect=fixed;shape=mxgraph.aws4.resourceIcon;resIcon=mxgraph.aws4.cloudfront;" vertex="1" parent="1">
          <mxGeometry x="289" y="20" width="60" height="60" as="geometry" />
        </mxCell>
        <mxCell id="OMyf0B87vqGbtnCyrnvH-15" value="AWS Route 53" style="sketch=0;points=[[0,0,0],[0.25,0,0],[0.5,0,0],[0.75,0,0],[1,0,0],[0,1,0],[0.25,1,0],[0.5,1,0],[0.75,1,0],[1,1,0],[0,0.25,0],[0,0.5,0],[0,0.75,0],[1,0.25,0],[1,0.5,0],[1,0.75,0]];outlineConnect=0;fontColor=#232F3E;fillColor=#8C4FFF;strokeColor=#ffffff;dashed=0;verticalLabelPosition=bottom;verticalAlign=top;align=center;html=1;fontSize=12;fontStyle=0;aspect=fixed;shape=mxgraph.aws4.resourceIcon;resIcon=mxgraph.aws4.route_53;" vertex="1" parent="1">
          <mxGeometry x="91" y="20" width="60" height="60" as="geometry" />
        </mxCell>
        <mxCell id="OMyf0B87vqGbtnCyrnvH-32" value="" style="endArrow=classic;startArrow=classic;html=1;rounded=0;exitX=0;exitY=0.5;exitDx=0;exitDy=0;exitPerimeter=0;entryX=1;entryY=0.5;entryDx=0;entryDy=0;entryPerimeter=0;" edge="1" parent="1" source="OMyf0B87vqGbtnCyrnvH-14" target="OMyf0B87vqGbtnCyrnvH-15">
          <mxGeometry width="50" height="50" relative="1" as="geometry">
            <mxPoint x="420" y="250" as="sourcePoint" />
            <mxPoint x="470" y="200" as="targetPoint" />
          </mxGeometry>
        </mxCell>
        <mxCell id="OMyf0B87vqGbtnCyrnvH-33" value="" style="endArrow=classic;html=1;rounded=0;entryX=0.5;entryY=0;entryDx=0;entryDy=0;entryPerimeter=0;edgeStyle=orthogonalEdgeStyle;exitX=1;exitY=0.5;exitDx=0;exitDy=0;exitPerimeter=0;" edge="1" parent="1" source="OMyf0B87vqGbtnCyrnvH-14" target="OMyf0B87vqGbtnCyrnvH-31">
          <mxGeometry width="50" height="50" relative="1" as="geometry">
            <mxPoint x="480" y="63" as="sourcePoint" />
            <mxPoint x="470" y="200" as="targetPoint" />
          </mxGeometry>
        </mxCell>
        <mxCell id="OMyf0B87vqGbtnCyrnvH-59" value="" style="endArrow=classic;startArrow=classic;html=1;rounded=0;entryX=0.5;entryY=1;entryDx=0;entryDy=0;entryPerimeter=0;" edge="1" parent="1" source="OMyf0B87vqGbtnCyrnvH-30" target="OMyf0B87vqGbtnCyrnvH-14">
          <mxGeometry width="50" height="50" relative="1" as="geometry">
            <mxPoint x="400" y="260" as="sourcePoint" />
            <mxPoint x="450" y="210" as="targetPoint" />
          </mxGeometry>
        </mxCell>
        <mxCell id="OMyf0B87vqGbtnCyrnvH-60" value="" style="endArrow=classic;startArrow=classic;html=1;rounded=0;" edge="1" parent="1" source="OMyf0B87vqGbtnCyrnvH-20" target="OMyf0B87vqGbtnCyrnvH-30">
          <mxGeometry width="50" height="50" relative="1" as="geometry">
            <mxPoint x="295" y="320" as="sourcePoint" />
            <mxPoint x="345" y="270" as="targetPoint" />
          </mxGeometry>
        </mxCell>
        <mxCell id="OMyf0B87vqGbtnCyrnvH-83" style="edgeStyle=orthogonalEdgeStyle;rounded=0;orthogonalLoop=1;jettySize=auto;html=1;startArrow=classic;startFill=1;" edge="1" parent="1" source="OMyf0B87vqGbtnCyrnvH-77" target="OMyf0B87vqGbtnCyrnvH-55">
          <mxGeometry relative="1" as="geometry" />
        </mxCell>
        <mxCell id="OMyf0B87vqGbtnCyrnvH-19" value="VPC" style="points=[[0,0],[0.25,0],[0.5,0],[0.75,0],[1,0],[1,0.25],[1,0.5],[1,0.75],[1,1],[0.75,1],[0.5,1],[0.25,1],[0,1],[0,0.75],[0,0.5],[0,0.25]];outlineConnect=0;gradientColor=none;html=1;whiteSpace=wrap;fontSize=12;fontStyle=0;container=1;pointerEvents=0;collapsible=0;recursiveResize=0;shape=mxgraph.aws4.group;grIcon=mxgraph.aws4.group_vpc2;strokeColor=#8C4FFF;fillColor=none;verticalAlign=top;align=left;spacingLeft=30;fontColor=#AAB7B8;dashed=0;" vertex="1" parent="1">
          <mxGeometry x="30" y="220" width="580" height="970" as="geometry" />
        </mxCell>
        <mxCell id="OMyf0B87vqGbtnCyrnvH-45" value="Availability Zone - 2&lt;div&gt;&lt;br&gt;&lt;/div&gt;" style="fillColor=none;strokeColor=#147EBA;dashed=1;verticalAlign=top;fontStyle=0;fontColor=#147EBA;whiteSpace=wrap;html=1;movable=1;resizable=1;rotatable=1;deletable=1;editable=1;locked=0;connectable=1;" vertex="1" parent="OMyf0B87vqGbtnCyrnvH-19">
          <mxGeometry x="357" y="40" width="170" height="880" as="geometry" />
        </mxCell>
        <mxCell id="OMyf0B87vqGbtnCyrnvH-35" value="&lt;blockquote style=&quot;margin: 0 0 0 40px; border: none; padding: 0px;&quot;&gt;Availability Zone - 1&lt;/blockquote&gt;" style="fillColor=none;strokeColor=#147EBA;dashed=1;verticalAlign=top;fontStyle=0;fontColor=#147EBA;whiteSpace=wrap;html=1;align=left;" vertex="1" parent="OMyf0B87vqGbtnCyrnvH-19">
          <mxGeometry x="50" y="40" width="170" height="880" as="geometry" />
        </mxCell>
        <mxCell id="OMyf0B87vqGbtnCyrnvH-21" value="Public subnet" style="points=[[0,0],[0.25,0],[0.5,0],[0.75,0],[1,0],[1,0.25],[1,0.5],[1,0.75],[1,1],[0.75,1],[0.5,1],[0.25,1],[0,1],[0,0.75],[0,0.5],[0,0.25]];outlineConnect=0;gradientColor=none;html=1;whiteSpace=wrap;fontSize=12;fontStyle=0;container=1;pointerEvents=0;collapsible=0;recursiveResize=0;shape=mxgraph.aws4.group;grIcon=mxgraph.aws4.group_security_group;grStroke=0;strokeColor=#7AA116;fillColor=#F2F6E8;verticalAlign=top;align=left;spacingLeft=30;fontColor=#248814;dashed=0;" vertex="1" parent="OMyf0B87vqGbtnCyrnvH-19">
          <mxGeometry x="75" y="86" width="130" height="189" as="geometry" />
        </mxCell>
        <mxCell id="OMyf0B87vqGbtnCyrnvH-20" value="ALB" style="sketch=0;outlineConnect=0;fontColor=#232F3E;gradientColor=none;fillColor=#8C4FFF;strokeColor=none;dashed=0;verticalLabelPosition=bottom;verticalAlign=top;align=center;html=1;fontSize=12;fontStyle=0;aspect=fixed;pointerEvents=1;shape=mxgraph.aws4.application_load_balancer;" vertex="1" parent="OMyf0B87vqGbtnCyrnvH-19">
          <mxGeometry x="260" y="111" width="60" height="60" as="geometry" />
        </mxCell>
        <mxCell id="OMyf0B87vqGbtnCyrnvH-23" value="Private subnet" style="points=[[0,0],[0.25,0],[0.5,0],[0.75,0],[1,0],[1,0.25],[1,0.5],[1,0.75],[1,1],[0.75,1],[0.5,1],[0.25,1],[0,1],[0,0.75],[0,0.5],[0,0.25]];outlineConnect=0;gradientColor=none;html=1;whiteSpace=wrap;fontSize=12;fontStyle=0;container=1;pointerEvents=0;collapsible=0;recursiveResize=0;shape=mxgraph.aws4.group;grIcon=mxgraph.aws4.group_security_group;grStroke=0;strokeColor=#00A4A6;fillColor=#E6F6F7;verticalAlign=top;align=left;spacingLeft=30;fontColor=#147EBA;dashed=0;" vertex="1" parent="OMyf0B87vqGbtnCyrnvH-19">
          <mxGeometry x="75" y="323" width="125" height="577" as="geometry" />
        </mxCell>
        <mxCell id="OMyf0B87vqGbtnCyrnvH-54" value="Authentication&amp;nbsp;&lt;br&gt;Service" style="sketch=0;points=[[0,0,0],[0.25,0,0],[0.5,0,0],[0.75,0,0],[1,0,0],[0,1,0],[0.25,1,0],[0.5,1,0],[0.75,1,0],[1,1,0],[0,0.25,0],[0,0.5,0],[0,0.75,0],[1,0.25,0],[1,0.5,0],[1,0.75,0]];outlineConnect=0;fontColor=#232F3E;fillColor=#ED7100;strokeColor=#ffffff;dashed=0;verticalLabelPosition=bottom;verticalAlign=top;align=center;html=1;fontSize=12;fontStyle=0;aspect=fixed;shape=mxgraph.aws4.resourceIcon;resIcon=mxgraph.aws4.fargate;" vertex="1" parent="OMyf0B87vqGbtnCyrnvH-23">
          <mxGeometry x="36" y="50" width="60" height="60" as="geometry" />
        </mxCell>
        <mxCell id="OMyf0B87vqGbtnCyrnvH-46" value="Network Gateway" style="sketch=0;outlineConnect=0;fontColor=#232F3E;gradientColor=none;fillColor=#8C4FFF;strokeColor=none;dashed=0;verticalLabelPosition=bottom;verticalAlign=top;align=center;html=1;fontSize=12;fontStyle=0;aspect=fixed;pointerEvents=1;shape=mxgraph.aws4.nat_gateway;" vertex="1" parent="OMyf0B87vqGbtnCyrnvH-19">
          <mxGeometry x="110" y="150" width="60" height="60" as="geometry" />
        </mxCell>
        <mxCell id="OMyf0B87vqGbtnCyrnvH-48" value="ASG" style="points=[[0,0],[0.25,0],[0.5,0],[0.75,0],[1,0],[1,0.25],[1,0.5],[1,0.75],[1,1],[0.75,1],[0.5,1],[0.25,1],[0,1],[0,0.75],[0,0.5],[0,0.25]];outlineConnect=0;gradientColor=none;html=1;whiteSpace=wrap;fontSize=12;fontStyle=0;container=1;pointerEvents=0;collapsible=0;recursiveResize=0;shape=mxgraph.aws4.groupCenter;grIcon=mxgraph.aws4.group_auto_scaling_group;grStroke=1;strokeColor=#D86613;fillColor=none;verticalAlign=top;align=center;fontColor=#D86613;dashed=1;spacingTop=25;" vertex="1" parent="OMyf0B87vqGbtnCyrnvH-19">
          <mxGeometry x="90" y="360" width="400" height="120" as="geometry" />
        </mxCell>
        <mxCell id="OMyf0B87vqGbtnCyrnvH-55" value="Authentication&lt;br&gt;Service" style="sketch=0;points=[[0,0,0],[0.25,0,0],[0.5,0,0],[0.75,0,0],[1,0,0],[0,1,0],[0.25,1,0],[0.5,1,0],[0.75,1,0],[1,1,0],[0,0.25,0],[0,0.5,0],[0,0.75,0],[1,0.25,0],[1,0.5,0],[1,0.75,0]];outlineConnect=0;fontColor=#232F3E;fillColor=#ED7100;strokeColor=#ffffff;dashed=0;verticalLabelPosition=bottom;verticalAlign=top;align=center;html=1;fontSize=12;fontStyle=0;aspect=fixed;shape=mxgraph.aws4.resourceIcon;resIcon=mxgraph.aws4.fargate;" vertex="1" parent="OMyf0B87vqGbtnCyrnvH-19">
          <mxGeometry x="406" y="373" width="60" height="60" as="geometry" />
        </mxCell>
        <mxCell id="OMyf0B87vqGbtnCyrnvH-56" style="edgeStyle=orthogonalEdgeStyle;rounded=0;orthogonalLoop=1;jettySize=auto;html=1;entryX=0;entryY=0.5;entryDx=0;entryDy=0;entryPerimeter=0;" edge="1" parent="OMyf0B87vqGbtnCyrnvH-19" source="OMyf0B87vqGbtnCyrnvH-20" target="OMyf0B87vqGbtnCyrnvH-72">
          <mxGeometry relative="1" as="geometry">
            <mxPoint x="265" y="155" as="sourcePoint" />
            <mxPoint x="141" y="383" as="targetPoint" />
            <Array as="points">
              <mxPoint x="340" y="145" />
              <mxPoint x="340" y="810" />
            </Array>
          </mxGeometry>
        </mxCell>
        <mxCell id="OMyf0B87vqGbtnCyrnvH-58" value="Network Gateway" style="sketch=0;outlineConnect=0;fontColor=#232F3E;gradientColor=none;fillColor=#8C4FFF;strokeColor=none;dashed=0;verticalLabelPosition=bottom;verticalAlign=top;align=center;html=1;fontSize=12;fontStyle=0;aspect=fixed;pointerEvents=1;shape=mxgraph.aws4.nat_gateway;" vertex="1" parent="OMyf0B87vqGbtnCyrnvH-19">
          <mxGeometry x="410" y="140" width="60" height="60" as="geometry" />
        </mxCell>
        <mxCell id="OMyf0B87vqGbtnCyrnvH-64" value="ASG" style="points=[[0,0],[0.25,0],[0.5,0],[0.75,0],[1,0],[1,0.25],[1,0.5],[1,0.75],[1,1],[0.75,1],[0.5,1],[0.25,1],[0,1],[0,0.75],[0,0.5],[0,0.25]];outlineConnect=0;gradientColor=none;html=1;whiteSpace=wrap;fontSize=12;fontStyle=0;container=1;pointerEvents=0;collapsible=0;recursiveResize=0;shape=mxgraph.aws4.groupCenter;grIcon=mxgraph.aws4.group_auto_scaling_group;grStroke=1;strokeColor=#D86613;fillColor=none;verticalAlign=top;align=center;fontColor=#D86613;dashed=1;spacingTop=25;" vertex="1" parent="OMyf0B87vqGbtnCyrnvH-19">
          <mxGeometry x="90" y="500" width="400" height="120" as="geometry" />
        </mxCell>
        <mxCell id="OMyf0B87vqGbtnCyrnvH-68" value="Movie&amp;nbsp;&lt;br&gt;Service" style="sketch=0;points=[[0,0,0],[0.25,0,0],[0.5,0,0],[0.75,0,0],[1,0,0],[0,1,0],[0.25,1,0],[0.5,1,0],[0.75,1,0],[1,1,0],[0,0.25,0],[0,0.5,0],[0,0.75,0],[1,0.25,0],[1,0.5,0],[1,0.75,0]];outlineConnect=0;fontColor=#232F3E;fillColor=#ED7100;strokeColor=#ffffff;dashed=0;verticalLabelPosition=bottom;verticalAlign=top;align=center;html=1;fontSize=12;fontStyle=0;aspect=fixed;shape=mxgraph.aws4.resourceIcon;resIcon=mxgraph.aws4.fargate;" vertex="1" parent="OMyf0B87vqGbtnCyrnvH-64">
          <mxGeometry x="316" y="20" width="60" height="60" as="geometry" />
        </mxCell>
        <mxCell id="OMyf0B87vqGbtnCyrnvH-65" value="ASG" style="points=[[0,0],[0.25,0],[0.5,0],[0.75,0],[1,0],[1,0.25],[1,0.5],[1,0.75],[1,1],[0.75,1],[0.5,1],[0.25,1],[0,1],[0,0.75],[0,0.5],[0,0.25]];outlineConnect=0;gradientColor=none;html=1;whiteSpace=wrap;fontSize=12;fontStyle=0;container=1;pointerEvents=0;collapsible=0;recursiveResize=0;shape=mxgraph.aws4.groupCenter;grIcon=mxgraph.aws4.group_auto_scaling_group;grStroke=1;strokeColor=#D86613;fillColor=none;verticalAlign=top;align=center;fontColor=#D86613;dashed=1;spacingTop=25;" vertex="1" parent="OMyf0B87vqGbtnCyrnvH-19">
          <mxGeometry x="90" y="635" width="400" height="115" as="geometry" />
        </mxCell>
        <mxCell id="OMyf0B87vqGbtnCyrnvH-66" value="ASG" style="points=[[0,0],[0.25,0],[0.5,0],[0.75,0],[1,0],[1,0.25],[1,0.5],[1,0.75],[1,1],[0.75,1],[0.5,1],[0.25,1],[0,1],[0,0.75],[0,0.5],[0,0.25]];outlineConnect=0;gradientColor=none;html=1;whiteSpace=wrap;fontSize=12;fontStyle=0;container=1;pointerEvents=0;collapsible=0;recursiveResize=0;shape=mxgraph.aws4.groupCenter;grIcon=mxgraph.aws4.group_auto_scaling_group;grStroke=1;strokeColor=#D86613;fillColor=none;verticalAlign=top;align=center;fontColor=#D86613;dashed=1;spacingTop=25;" vertex="1" parent="OMyf0B87vqGbtnCyrnvH-65">
          <mxGeometry y="130" width="400" height="120" as="geometry" />
        </mxCell>
        <mxCell id="OMyf0B87vqGbtnCyrnvH-71" value="Theatre&lt;br&gt;Service" style="sketch=0;points=[[0,0,0],[0.25,0,0],[0.5,0,0],[0.75,0,0],[1,0,0],[0,1,0],[0.25,1,0],[0.5,1,0],[0.75,1,0],[1,1,0],[0,0.25,0],[0,0.5,0],[0,0.75,0],[1,0.25,0],[1,0.5,0],[1,0.75,0]];outlineConnect=0;fontColor=#232F3E;fillColor=#ED7100;strokeColor=#ffffff;dashed=0;verticalLabelPosition=bottom;verticalAlign=top;align=center;html=1;fontSize=12;fontStyle=0;aspect=fixed;shape=mxgraph.aws4.resourceIcon;resIcon=mxgraph.aws4.fargate;" vertex="1" parent="OMyf0B87vqGbtnCyrnvH-66">
          <mxGeometry x="20" y="15" width="60" height="60" as="geometry" />
        </mxCell>
        <mxCell id="OMyf0B87vqGbtnCyrnvH-89" style="edgeStyle=orthogonalEdgeStyle;rounded=0;orthogonalLoop=1;jettySize=auto;html=1;startArrow=classic;startFill=1;endArrow=none;endFill=0;" edge="1" parent="OMyf0B87vqGbtnCyrnvH-19" source="OMyf0B87vqGbtnCyrnvH-67">
          <mxGeometry relative="1" as="geometry">
            <mxPoint x="240" y="550" as="targetPoint" />
          </mxGeometry>
        </mxCell>
        <mxCell id="OMyf0B87vqGbtnCyrnvH-67" value="Movie&amp;nbsp;&lt;br&gt;Service" style="sketch=0;points=[[0,0,0],[0.25,0,0],[0.5,0,0],[0.75,0,0],[1,0,0],[0,1,0],[0.25,1,0],[0.5,1,0],[0.75,1,0],[1,1,0],[0,0.25,0],[0,0.5,0],[0,0.75,0],[1,0.25,0],[1,0.5,0],[1,0.75,0]];outlineConnect=0;fontColor=#232F3E;fillColor=#ED7100;strokeColor=#ffffff;dashed=0;verticalLabelPosition=bottom;verticalAlign=top;align=center;html=1;fontSize=12;fontStyle=0;aspect=fixed;shape=mxgraph.aws4.resourceIcon;resIcon=mxgraph.aws4.fargate;" vertex="1" parent="OMyf0B87vqGbtnCyrnvH-19">
          <mxGeometry x="110" y="520" width="60" height="60" as="geometry" />
        </mxCell>
        <mxCell id="OMyf0B87vqGbtnCyrnvH-69" value="Booking&amp;nbsp;&lt;br&gt;Service" style="sketch=0;points=[[0,0,0],[0.25,0,0],[0.5,0,0],[0.75,0,0],[1,0,0],[0,1,0],[0.25,1,0],[0.5,1,0],[0.75,1,0],[1,1,0],[0,0.25,0],[0,0.5,0],[0,0.75,0],[1,0.25,0],[1,0.5,0],[1,0.75,0]];outlineConnect=0;fontColor=#232F3E;fillColor=#ED7100;strokeColor=#ffffff;dashed=0;verticalLabelPosition=bottom;verticalAlign=top;align=center;html=1;fontSize=12;fontStyle=0;aspect=fixed;shape=mxgraph.aws4.resourceIcon;resIcon=mxgraph.aws4.fargate;" vertex="1" parent="OMyf0B87vqGbtnCyrnvH-19">
          <mxGeometry x="110" y="650" width="60" height="60" as="geometry" />
        </mxCell>
        <mxCell id="OMyf0B87vqGbtnCyrnvH-70" value="Booking&amp;nbsp;&lt;br&gt;Service" style="sketch=0;points=[[0,0,0],[0.25,0,0],[0.5,0,0],[0.75,0,0],[1,0,0],[0,1,0],[0.25,1,0],[0.5,1,0],[0.75,1,0],[1,1,0],[0,0.25,0],[0,0.5,0],[0,0.75,0],[1,0.25,0],[1,0.5,0],[1,0.75,0]];outlineConnect=0;fontColor=#232F3E;fillColor=#ED7100;strokeColor=#ffffff;dashed=0;verticalLabelPosition=bottom;verticalAlign=top;align=center;html=1;fontSize=12;fontStyle=0;aspect=fixed;shape=mxgraph.aws4.resourceIcon;resIcon=mxgraph.aws4.fargate;" vertex="1" parent="OMyf0B87vqGbtnCyrnvH-19">
          <mxGeometry x="406" y="650" width="60" height="60" as="geometry" />
        </mxCell>
        <mxCell id="OMyf0B87vqGbtnCyrnvH-72" value="Theatre&lt;br&gt;Service" style="sketch=0;points=[[0,0,0],[0.25,0,0],[0.5,0,0],[0.75,0,0],[1,0,0],[0,1,0],[0.25,1,0],[0.5,1,0],[0.75,1,0],[1,1,0],[0,0.25,0],[0,0.5,0],[0,0.75,0],[1,0.25,0],[1,0.5,0],[1,0.75,0]];outlineConnect=0;fontColor=#232F3E;fillColor=#ED7100;strokeColor=#ffffff;dashed=0;verticalLabelPosition=bottom;verticalAlign=top;align=center;html=1;fontSize=12;fontStyle=0;aspect=fixed;shape=mxgraph.aws4.resourceIcon;resIcon=mxgraph.aws4.fargate;" vertex="1" parent="OMyf0B87vqGbtnCyrnvH-19">
          <mxGeometry x="406" y="780" width="60" height="60" as="geometry" />
        </mxCell>
        <mxCell id="OMyf0B87vqGbtnCyrnvH-75" style="edgeStyle=orthogonalEdgeStyle;rounded=0;orthogonalLoop=1;jettySize=auto;html=1;startArrow=classic;startFill=1;endArrow=none;endFill=0;" edge="1" parent="OMyf0B87vqGbtnCyrnvH-19" source="OMyf0B87vqGbtnCyrnvH-71" target="OMyf0B87vqGbtnCyrnvH-20">
          <mxGeometry relative="1" as="geometry">
            <mxPoint x="240" y="350" as="targetPoint" />
            <Array as="points">
              <mxPoint x="240" y="810" />
              <mxPoint x="240" y="141" />
            </Array>
          </mxGeometry>
        </mxCell>
        <mxCell id="OMyf0B87vqGbtnCyrnvH-86" style="edgeStyle=orthogonalEdgeStyle;rounded=0;orthogonalLoop=1;jettySize=auto;html=1;startArrow=classic;startFill=1;" edge="1" parent="OMyf0B87vqGbtnCyrnvH-19">
          <mxGeometry relative="1" as="geometry">
            <mxPoint x="620" y="809.5" as="sourcePoint" />
            <mxPoint x="466" y="809.5" as="targetPoint" />
          </mxGeometry>
        </mxCell>
        <mxCell id="OMyf0B87vqGbtnCyrnvH-85" style="edgeStyle=orthogonalEdgeStyle;rounded=0;orthogonalLoop=1;jettySize=auto;html=1;startArrow=classic;startFill=1;" edge="1" parent="OMyf0B87vqGbtnCyrnvH-19">
          <mxGeometry relative="1" as="geometry">
            <mxPoint x="620" y="679.5" as="sourcePoint" />
            <mxPoint x="466" y="679.5" as="targetPoint" />
          </mxGeometry>
        </mxCell>
        <mxCell id="OMyf0B87vqGbtnCyrnvH-88" style="edgeStyle=orthogonalEdgeStyle;rounded=0;orthogonalLoop=1;jettySize=auto;html=1;startArrow=classic;startFill=1;" edge="1" parent="OMyf0B87vqGbtnCyrnvH-19">
          <mxGeometry relative="1" as="geometry">
            <mxPoint x="620" y="549.5" as="sourcePoint" />
            <mxPoint x="466" y="549.5" as="targetPoint" />
          </mxGeometry>
        </mxCell>
        <mxCell id="OMyf0B87vqGbtnCyrnvH-40" value="ECS Cluster" style="points=[[0,0],[0.25,0],[0.5,0],[0.75,0],[1,0],[1,0.25],[1,0.5],[1,0.75],[1,1],[0.75,1],[0.5,1],[0.25,1],[0,1],[0,0.75],[0,0.5],[0,0.25]];outlineConnect=0;gradientColor=none;html=1;whiteSpace=wrap;fontSize=12;fontStyle=0;container=0;pointerEvents=0;collapsible=0;recursiveResize=0;shape=mxgraph.aws4.group;grIcon=mxgraph.aws4.group_ec2_instance_contents;strokeColor=#D86613;fillColor=none;verticalAlign=top;align=left;spacingLeft=30;fontColor=#D86613;dashed=0;" vertex="1" parent="OMyf0B87vqGbtnCyrnvH-19">
          <mxGeometry x="20" y="300" width="540" height="640" as="geometry" />
        </mxCell>
        <mxCell id="OMyf0B87vqGbtnCyrnvH-41" value="" style="sketch=0;points=[[0,0,0],[0.25,0,0],[0.5,0,0],[0.75,0,0],[1,0,0],[0,1,0],[0.25,1,0],[0.5,1,0],[0.75,1,0],[1,1,0],[0,0.25,0],[0,0.5,0],[0,0.75,0],[1,0.25,0],[1,0.5,0],[1,0.75,0]];outlineConnect=0;fontColor=#232F3E;fillColor=#ED7100;strokeColor=#ffffff;dashed=0;verticalLabelPosition=bottom;verticalAlign=top;align=center;html=1;fontSize=12;fontStyle=0;shape=mxgraph.aws4.resourceIcon;resIcon=mxgraph.aws4.ecs;" vertex="1" parent="OMyf0B87vqGbtnCyrnvH-19">
          <mxGeometry x="20" y="300" width="25" height="25" as="geometry" />
        </mxCell>
        <mxCell id="OMyf0B87vqGbtnCyrnvH-97" style="edgeStyle=orthogonalEdgeStyle;rounded=0;orthogonalLoop=1;jettySize=auto;html=1;startArrow=classic;startFill=1;endArrow=none;endFill=0;" edge="1" parent="OMyf0B87vqGbtnCyrnvH-19" source="OMyf0B87vqGbtnCyrnvH-46" target="OMyf0B87vqGbtnCyrnvH-40">
          <mxGeometry relative="1" as="geometry">
            <mxPoint x="250" y="287" as="targetPoint" />
            <mxPoint x="180" y="287" as="sourcePoint" />
            <Array as="points">
              <mxPoint x="210" y="180" />
              <mxPoint x="210" y="287" />
              <mxPoint x="290" y="287" />
            </Array>
          </mxGeometry>
        </mxCell>
        <mxCell id="OMyf0B87vqGbtnCyrnvH-98" style="edgeStyle=orthogonalEdgeStyle;rounded=0;orthogonalLoop=1;jettySize=auto;html=1;startArrow=classic;startFill=1;endArrow=none;endFill=0;" edge="1" parent="OMyf0B87vqGbtnCyrnvH-19" source="OMyf0B87vqGbtnCyrnvH-58" target="OMyf0B87vqGbtnCyrnvH-40">
          <mxGeometry relative="1" as="geometry">
            <mxPoint x="310" y="290" as="targetPoint" />
            <mxPoint x="180" y="190" as="sourcePoint" />
            <Array as="points">
              <mxPoint x="360" y="170" />
              <mxPoint x="360" y="280" />
              <mxPoint x="300" y="280" />
            </Array>
          </mxGeometry>
        </mxCell>
        <mxCell id="OMyf0B87vqGbtnCyrnvH-28" style="edgeStyle=none;rounded=0;orthogonalLoop=1;jettySize=auto;html=1;exitX=1;exitY=0.5;exitDx=0;exitDy=0;" edge="1" parent="1" source="OMyf0B87vqGbtnCyrnvH-19" target="OMyf0B87vqGbtnCyrnvH-19">
          <mxGeometry relative="1" as="geometry" />
        </mxCell>
        <mxCell id="OMyf0B87vqGbtnCyrnvH-90" style="edgeStyle=orthogonalEdgeStyle;rounded=0;orthogonalLoop=1;jettySize=auto;html=1;startArrow=classic;startFill=1;endArrow=none;endFill=0;" edge="1" parent="1">
          <mxGeometry relative="1" as="geometry">
            <mxPoint x="270" y="901" as="targetPoint" />
            <mxPoint x="200" y="901" as="sourcePoint" />
          </mxGeometry>
        </mxCell>
        <mxCell id="OMyf0B87vqGbtnCyrnvH-91" style="edgeStyle=orthogonalEdgeStyle;rounded=0;orthogonalLoop=1;jettySize=auto;html=1;startArrow=classic;startFill=1;endArrow=none;endFill=0;" edge="1" parent="1">
          <mxGeometry relative="1" as="geometry">
            <mxPoint x="270" y="627" as="targetPoint" />
            <mxPoint x="200" y="627" as="sourcePoint" />
          </mxGeometry>
        </mxCell>
        <mxCell id="OMyf0B87vqGbtnCyrnvH-92" style="edgeStyle=orthogonalEdgeStyle;rounded=0;orthogonalLoop=1;jettySize=auto;html=1;startArrow=none;startFill=0;endArrow=classic;endFill=1;" edge="1" parent="1">
          <mxGeometry relative="1" as="geometry">
            <mxPoint x="440" y="626" as="targetPoint" />
            <mxPoint x="370" y="626" as="sourcePoint" />
          </mxGeometry>
        </mxCell>
        <mxCell id="OMyf0B87vqGbtnCyrnvH-94" style="edgeStyle=orthogonalEdgeStyle;rounded=0;orthogonalLoop=1;jettySize=auto;html=1;startArrow=none;startFill=0;endArrow=classic;endFill=1;" edge="1" parent="1">
          <mxGeometry relative="1" as="geometry">
            <mxPoint x="441" y="770" as="targetPoint" />
            <mxPoint x="371" y="770" as="sourcePoint" />
          </mxGeometry>
        </mxCell>
        <mxCell id="OMyf0B87vqGbtnCyrnvH-95" style="edgeStyle=orthogonalEdgeStyle;rounded=0;orthogonalLoop=1;jettySize=auto;html=1;startArrow=none;startFill=0;endArrow=classic;endFill=1;" edge="1" parent="1">
          <mxGeometry relative="1" as="geometry">
            <mxPoint x="440" y="903" as="targetPoint" />
            <mxPoint x="370" y="903" as="sourcePoint" />
          </mxGeometry>
        </mxCell>
        <mxCell id="OMyf0B87vqGbtnCyrnvH-100" style="rounded=0;orthogonalLoop=1;jettySize=auto;html=1;" edge="1" parent="1" source="OMyf0B87vqGbtnCyrnvH-58" target="OMyf0B87vqGbtnCyrnvH-30">
          <mxGeometry relative="1" as="geometry" />
        </mxCell>
        <mxCell id="OMyf0B87vqGbtnCyrnvH-99" style="rounded=0;orthogonalLoop=1;jettySize=auto;html=1;elbow=vertical;" edge="1" parent="1" source="OMyf0B87vqGbtnCyrnvH-46" target="OMyf0B87vqGbtnCyrnvH-30">
          <mxGeometry relative="1" as="geometry">
            <mxPoint x="160" y="370" as="sourcePoint" />
            <mxPoint x="280" y="209.99931678433165" as="targetPoint" />
          </mxGeometry>
        </mxCell>
        <mxCell id="OMyf0B87vqGbtnCyrnvH-101" style="edgeStyle=orthogonalEdgeStyle;rounded=0;orthogonalLoop=1;jettySize=auto;html=1;" edge="1" parent="1" source="OMyf0B87vqGbtnCyrnvH-70" target="OMyf0B87vqGbtnCyrnvH-81">
          <mxGeometry relative="1" as="geometry">
            <Array as="points">
              <mxPoint x="466" y="950" />
              <mxPoint x="630" y="950" />
              <mxPoint x="630" y="1143" />
            </Array>
          </mxGeometry>
        </mxCell>
      </root>
    </mxGraphModel>
  </diagram>
</mxfile>
